<?xml version="1.0" encoding="utf-8"?>
<!-- Generator: Adobe Illustrator 19.0.1, SVG Export Plug-In . SVG Version: 6.00 Build 0)  -->
<svg version="1.1" id="icons" xmlns="http://www.w3.org/2000/svg" xmlns:xlink="http://www.w3.org/1999/xlink" x="0px" y="0px"
	 viewBox="0 0 128 128" style="enable-background:new 0 0 128 128;" xml:space="preserve">
<style type="text/css">
	.st0{display:none;}
	.st1{display:inline;fill:#161616;}
	.st2{fill:#161616;}
</style>
<g id="row3">
	<g id="tree:4_2_" class="st0">
		<path id="Path_25_" class="st1" d="M68.1,128l-12.9-0.6c0.1-0.4,3.4-22,5.2-46.3c1.5-20.8,1.9-43.6-2-56.8l4.7-1.2
			c3.9,13.6,4.4,36.1,3.7,56.8C66,104.3,68.4,126.3,68.1,128z"/>
		<path id="Path_24_" class="st1" d="M76.8,11.8c1,1.1,1.6,2.4,1.6,4c0,3-2.4,5.5-5.5,6c-0.5,2.9-3.3,5.1-6.5,5.1
			c-1.6,0-3.1-0.5-4.3-1.5c-1.2,0.9-2.6,1.5-4.3,1.5c-3.3,0-6-2.2-6.5-5c-0.3,0.1-0.6,0.1-1,0.1c-3.7,0-6.6-2.8-6.6-6.1
			c0-1.8,0.8-3.4,2.1-4.5c-0.8-0.9-1.3-1.9-1.3-3c0-3.1,3.7-5.6,8.2-5.6c2,0,3.8,0.5,5.3,1.3C59,1.7,61.1,0,63.6,0
			c1.9,0,3.7,1,4.8,2.6c1-0.5,2.1-0.9,3.4-0.9c3.7,0,6.6,2.8,6.6,6.1C78.4,9.4,77.8,10.8,76.8,11.8z M42,54c-0.4,4.2,3,7.9,7.5,8.3
			c1.5,0.1,3-0.2,4.3-0.7c1.2,2.1,3.2,3.5,5.6,3.7c3.1,0.3,6-1.6,7.4-4.5c1.7,1.1,3.9,1.9,6.4,2.1c5.6,0.5,10.5-2.3,10.9-6.1
			c0.1-1.4-0.3-2.7-1.2-3.8c1.8-1.3,3-3.2,3.2-5.4c0.4-4.2-3-7.9-7.5-8.3c-0.4,0-0.8,0-1.2,0c-0.4-3.6-3.4-6.6-7.5-6.9
			c-2-0.2-4,0.4-5.5,1.4c-1.3-1.3-3.1-2.1-5.2-2.2c-4-0.3-7.7,2.1-8.7,5.6c-3.9,0.3-7.2,3.2-7.5,7c-0.2,1.9,0.4,3.7,1.5,5.1
			C43.1,50.5,42.2,52.1,42,54z M37.6,99c-0.5,5.1,3.5,9.5,9,10c1.8,0.2,3.6-0.2,5.2-0.9c1.4,2.5,3.9,4.2,6.8,4.4
			c3.7,0.3,7.1-1.9,8.9-5.4c2,1.4,4.7,2.3,7.7,2.6c6.8,0.6,12.6-2.7,13.1-7.3c0.2-1.6-0.4-3.2-1.5-4.6c2.1-1.5,3.6-3.8,3.8-6.4
			c0.5-5.1-3.5-9.5-9-10c-0.5,0-1-0.1-1.5,0c-0.4-4.3-4.1-7.9-9-8.3c-2.4-0.2-4.7,0.4-6.6,1.6c-1.6-1.5-3.8-2.5-6.2-2.7
			c-4.9-0.4-9.2,2.5-10.4,6.7c-4.7,0.4-8.6,3.8-9,8.3c-0.2,2.3,0.5,4.4,1.8,6.1C38.9,94.8,37.8,96.7,37.6,99z"/>
	</g>
	<g id="tree:3_2_" class="st0">
		<path id="Path_50_" class="st1" d="M58.8,79.5c0,0,2.8,29.3-3.7,40.2S80,131.2,73.6,119c-5.9-11.2-3.8-40.5-3.8-40.5L58.8,79.5z"
			/>
		<path id="Path_47_" class="st1" d="M114.5,101.2L64,81.5l-50.5,19.7c11.7-7.7,20.7-15.9,27.5-23.7l-21.3,8.3
			c11.2-7.4,19.6-15.3,25.9-22.7l-21,8.2c10.2-6.8,17.8-14,23.4-20.7l-23.4,9.1C34.8,53,42.4,45.8,48,39.1l-23.4,9.1
			C57.6,26.4,63.2,0,63.2,0s4.8,27.3,40.2,48.3L77.3,38.1c5.9,7.1,14.3,14.8,26.1,21.7L77.3,49.6c5.9,7.1,14.3,14.8,26.1,21.7
			l-24-9.4c6.7,7.9,15.9,16.3,28.8,23.9l-24.7-9.7C91,84.5,101,93.2,114.5,101.2z"/>
	</g>
	<g id="tree:2_2_" class="st0">
		<path id="Path_13_" class="st1" d="M106.4,65.5l-9.9,9.1c3.5-0.3,6.4-0.4,8.2-0.4c0.1,0.8,0.3,1.6,0.6,2.3c-1.7,0-4.6,0-8.3,0.3
			l5.6,6.7c-0.3,0.3-0.5,0.7-0.6,1.1l0,0l-9.2-7.3c-1.6,0.2-3.2,0.5-4.9,0.8l8.2,8.8c-0.3,0.2-0.7,0.5-1,0.8l-6.7-5.6l-0.2,4.2
			c-0.1,0-0.3,0-0.4,0c-0.3,0-0.6,0-0.9,0l0.3-5.2l-2.7-2.3c-9.4,2.2-19,6.6-22.3,15.1c-2.5,6.4,3,22.5,3,22.7H52
			c-0.1-0.5,2.1-9.2,3.4-16.2c-3-1.9-7-4.7-9-8.2C43,92.6,23.1,92,18.2,91.2c-0.1-0.2-0.2-0.3-0.3-0.4c0.2-0.1,0.5-0.2,0.7-0.2
			c0.4-0.1,0.7-0.3,1-0.4c1.7,0.2,5.6,0.1,10.2-0.2c-1.8-1-4.8-2.8-7-4.7c-0.2-1-0.9-1.9-1.9-2.6l10.9,7.2c4.3-0.3,8.9-0.6,12.8-1
			c-0.1-0.3-0.3-0.7-0.4-1c-0.1-0.3-0.2-0.7-0.2-1.1c-0.8-0.7-5.5-4.4-9.4-8.4c-2,0.1-9.9,0.2-16.4-0.6c0.1-0.4,0.2-0.8,0.2-1.1
			c0.4,0.1,0.9,0.1,1.3,0.1c1.2,0.9,2.6,1.4,4.2,1.4c1.3,0,2.5-0.3,3.5-0.9c2.1,0,4.2,0.1,6,0c-0.1-0.1-0.1-0.1-0.2-0.2
			c-1.1-1.3-2.1-2.4-2.8-3.3c0.2-0.5,0.3-1,0.4-1.5c0.7,1,1.8,2.4,3.4,4.1c3.2,3.6,7.6,5,9.5,6.5c0-2.4-4-12.7-6.2-16.6
			c-1.3-0.1-5.7-0.3-8.2,0.5c-0.3-0.3-0.6-0.6-0.9-0.9c2.3-0.9,6.4-0.8,8.4-0.7c0-0.1-0.1-0.2-0.1-0.2c-0.8-1.6-1-3.6-0.9-5.3
			c0.9-0.8,1.6-2,1.9-3.2c-0.1,2.4,0,6.9,1.4,9.4c2,3.5,6.5,15.3,8.1,21.2c1,3.7,5.3,7.3,9,8.9c0.3-0.9,0.6-1.8,0.8-2.6
			c0.9-2.4,2.6-4.6,4.7-6.6c0.1-2.6,0.5-6.3,1.2-11c-2.1-0.4-10.8-6.9-11.9-14.2c-1.5-1.3-8.7-8.4-11.2-13.8
			c0.3-0.6,0.5-1.2,0.7-1.8c1.3,4.4,9.7,12.2,12.9,15c0-0.6,0-1.3,0-2.1c0.3-4-0.1-5.7-0.9-9.4c-1.5-0.6-8.2-6.3-11.1-9.8
			c0.4-0.2,0.7-0.5,1-0.8c2.2,2.7,7.6,5.8,9.8,6.9c-1.2-5.2-3.2-9.9-4-11.4c0.4-0.3,0.7-0.6,1-0.9c0.7,1.5,6.4,14.2,5.5,25.6
			c-0.8,9.7,6.2,11.8,8.4,12.2c0.5-3.3,0-4.3,1-7.2c-0.3-1.1-0.5-9.4-0.4-15.6c-1.1-1.4-9.9-12.1-13.2-17.6c0-0.2,0-0.5,0-0.7
			c0-0.4,0-0.7-0.1-1.1c0.2-0.1,0.3-0.1,0.5-0.2c1,2.1,4.4,6.4,6.7,9.5c0.3-0.5,0.9-1.7,0.9-4.2c0.4,0.5,0.9,1,1.5,1.4
			c0.1,3.2-0.5,4.7-0.5,4.7c2.1,2.9,3.1,4.6,4.4,6.2c0.2-3.4,0.6-6.4,1.4-9c0.3,0,0.5,0,0.8,0c0.2,0,0.3,0,0.5,0
			c-0.9,2.8-1.4,6.3-1.5,10.3c-0.1,4.7,0.7,9.2,1.2,11.8c0.7-1.6,1.5-3.1,2.4-4.2c0.6-0.7,1.2-1.3,1.8-1.8
			c0.5-1.4,4.4-12.4,3.4-16.8c0.4,0.1,0.8,0.1,1.2,0.1h0.1c0.7,4.1-1.8,12.1-2.9,15.5c2.5-1.3,5-2.2,7.4-2c0.6,0.1,1.2,0.1,1.8,0.1
			c1.1,0.9,2.3,1.6,3.6,2c-2,0.5-3.8,0.3-5.6,0.1c-3.5-0.3-6.5,0.6-9.8,4.5c-5.2,6.2-4.9,20.6-4.4,26.9c1.9-1.3,4.1-2.5,6.6-3.5
			c1.8-3.7,9.6-17.8,18.2-19.4c1.1-0.2,2.1-0.6,2.1-0.6l8.2-5.5c0.3,0.3,0.6,0.6,1,0.9l-5.9,4.6c3.8-0.3,6.6,0,8.3,0.3
			c0,0.4,0.1,0.8,0.3,1.2c-2.1-0.4-7-1-13.7,0.3c-7,1.3-11.5,11.7-13.1,16.2c2.9-1,6-1.8,9.2-2.4c2.4-0.5,4.7-0.8,6.8-1.1l12.2-10.4
			l0.8-0.7l1,0.7L106.4,65.5z"/>
		<path id="Path_12_" class="st1" d="M117.8,83.6c1,1.3,1.5,2.9,1.5,4.6c0,4.7-4.1,8.4-9.1,8.4c-1.4,3.1-4.6,5.2-8.4,5.2
			c-2.5,0-4.8-0.9-6.4-2.4c-1.6,2.3-4.4,3.7-7.6,3.7c-5,0-9.1-3.8-9.1-8.4c0-4.4,3.6-8,8.3-8.4c0.3,0,0.6,0,0.9,0c0.1,0,0.3,0,0.4,0
			c2.3,0.1,4.5,1,6,2.4c0.3-0.3,0.5-0.7,0.9-1c0.3-0.3,0.6-0.6,1-0.8c1.6-1.2,3.6-1.9,5.8-1.9c0-0.1,0.1-0.2,0.2-0.3
			c0.2-0.4,0.4-0.7,0.6-1.1c1.2-1.7,2.9-2.9,5.1-3.5c-1-1-1.8-2.2-2.3-3.5c-0.3-0.7-0.5-1.5-0.6-2.3c-0.1-0.4-0.1-0.9-0.1-1.3
			c0-2.5,0.9-4.9,2.5-6.7c-0.3-0.2-0.5-0.4-0.8-0.7c-0.3-0.3-0.6-0.6-0.8-0.9c-0.6-0.8-1.1-1.7-1.4-2.7c-0.1-0.4-0.2-0.8-0.3-1.2
			c0-0.3-0.1-0.6-0.1-0.9c0-0.9,0.1-1.7,0.4-2.5c-1-0.3-2-0.9-2.8-1.5c-0.4-0.3-0.7-0.6-1-0.9c-1.1-1.2-1.9-2.7-2.1-4.3
			c-2.2,1.7-5.1,2.7-8.2,2.7c-1.7,0-3.4-0.3-4.9-0.9c-1.3-0.5-2.5-1.2-3.6-2c-2.8-2.2-4.5-5.5-4.5-9.1c0-1.9,0.5-3.7,1.3-5.3
			c-0.9,0.5-2,0.8-3.1,0.8h-0.1c-0.4,0-0.8,0-1.2-0.1c-0.9-0.1-1.7-0.5-2.4-0.9c-1.4,1-3.1,1.5-5,1.6c-0.2,0-0.3,0-0.5,0
			c-0.3,0-0.5,0-0.8,0c-2-0.2-3.8-0.9-5.3-2c-0.6-0.4-1.1-0.9-1.5-1.4c-1.2-1.4-1.9-3.3-1.9-5.3c-1.3-0.3-2.4-0.9-3.2-1.9
			c-0.6,0.8-1.5,1.4-2.4,1.8c-0.1,0.1-0.3,0.2-0.5,0.2c0.1,0.3,0.1,0.7,0.1,1.1c0,0.2,0,0.5,0,0.7c-0.1,1-0.6,1.9-1.2,2.7
			c-0.3,0.3-0.6,0.6-1,0.9c-1,0.7-2.3,1.2-3.6,1.2c-0.2,0-0.5,0-0.7,0c0,1.3-0.6,2.5-1.5,3.4c-0.3,0.3-0.6,0.6-1,0.8
			c-0.5,0.4-1.1,0.6-1.8,0.8c0.7,1.1,1.1,2.4,1.1,3.8c0,0.6-0.1,1.1-0.2,1.6c-0.1,0.6-0.4,1.2-0.7,1.8c-0.7,1.2-1.7,2.3-3,3
			c0.5,0.9,0.8,1.9,0.8,3.1v1.3c0,0.4,0,0.9-0.1,1.3v0c-0.3,1.2-0.9,2.4-1.9,3.2c-1.2,1.1-2.8,1.8-4.6,1.8c-0.6,0-1.1-0.1-1.6-0.2
			c0.1,0.4,0.2,0.8,0.2,1.3c0,1.3-0.6,2.5-1.5,3.4c0,0,0,0,0.1,0.1c0.3,0.3,0.6,0.6,0.9,0.9c1,1.2,1.5,2.7,1.5,4.4
			c0,0.4,0,0.8-0.1,1.1c-0.1,0.5-0.2,1-0.4,1.5c-0.6,1.5-1.7,2.7-3.1,3.5c-1,0.6-2.3,0.9-3.5,0.9c-1.6,0-3-0.5-4.2-1.4
			c-0.5-0.3-0.9-0.8-1.3-1.2c0,0.2,0,0.4,0,0.6c0,0.2,0,0.3,0,0.5c0,0.4-0.1,0.8-0.2,1.1c-0.3,1.2-0.9,2.2-1.8,3.1
			c1.8,0.3,3.4,1,4.5,1.8c1,0.7,1.7,1.6,1.9,2.6c0.1,0.2,0.1,0.5,0.1,0.7c0,1.7-1.3,3.1-3.3,4.1c-0.3,0.2-0.6,0.3-1,0.4
			c-0.2,0.1-0.5,0.2-0.7,0.2c0.1,0.1,0.2,0.3,0.3,0.4c0.8,1.1,1.2,2.5,1.2,3.9c0,4.2-3.7,7.7-8.2,7.7S3,99.4,3,95.1
			c0-2.5,1.3-4.7,3.2-6c-1.1-0.9-1.7-2-1.7-3.1c0-1,0.5-2,1.4-2.8C2.4,82,0,79.2,0,76c0-4.2,4.1-7.6,9.2-7.6c3.2,0,6,1.3,7.7,3.4
			c0-0.3-0.1-0.5-0.1-0.8c0-2.3,1.1-4.3,2.8-5.6c-0.8-0.9-1.2-2-1.2-3.1c0-2.9,2.6-5.2,5.8-5.2c0.4,0,0.8,0,1.2,0.1
			c-0.3-0.7-0.4-1.4-0.4-2.2c0-0.2,0-0.4,0-0.6c0-0.2,0-0.4,0-0.6c0-1.7,0.7-3.2,1.9-4.4c-1.4-1.4-2.2-3.2-2.2-5.2
			c0-4.1,3.5-7.5,8-7.6c-0.2-0.5-0.2-1-0.2-1.5c0-3,2.6-5.5,5.9-5.5c0.3,0,0.5,0,0.8,0.1c0.1-1.7,1-3.1,2.3-4
			c-0.5-0.9-0.7-1.9-0.7-3c0-3.7,3.2-6.7,7.2-6.7c2.7,0,5.1,1.4,6.3,3.5c1-0.9,2.4-1.4,3.9-1.4c2,0,3.8,1,4.8,2.4
			c1-0.3,2.1-0.5,3.2-0.5c3.7,0,6.9,1.9,8.4,4.8c0.2,0,0.4,0,0.6,0c3.6,0,6.6,2.7,6.6,6.1c0,0.5-0.1,1-0.2,1.5c2.3-1.8,5.3-3,8.6-3
			c7.2,0,13,5.4,13,12c0,0.2,0,0.5,0,0.7c1.3-0.6,2.7-1,4.2-1c5,0,9.1,3.8,9.1,8.4c0,0.9-0.1,1.7-0.4,2.5c3.5,1.2,6,4.3,6,7.9
			c0,1.2-0.3,2.4-0.8,3.5c3.9,1.7,6.7,5.5,6.7,9.7C128,78.4,123.6,82.9,117.8,83.6z"/>
	</g>
	<g id="tree:1_2_" class="st0">
		<path id="Path_8_" class="st1" d="M49.8,81.6c-10.7,13.5,6.7,46,6.8,46.4H34c0-0.1,4.4-0.6,2.5-12.8c-2.2-14.6-1-25.5,3.8-32.5
			c-3.4-2.7-15.7-12.9-16.8-24.2c1.4-0.9,2.3-2.4,2.4-4.1l0.3,0.1c-2.1,11.6,14.5,21,18.3,23c9.7-13.8,4.3-40.3,2.5-47.7
			c0.3,0,0.6,0.1,0.9,0.1c1.8,0,3.5-0.5,4.9-1.4c1,5.3,4.6,27.3,1.4,42.5c10.1-1.2,36.6-5.3,40.9-14.1c2.5-0.1,4.8-0.9,6.7-2.2
			C101.4,67.3,64,75.6,52.1,77.8C51.4,79.2,50.7,80.5,49.8,81.6z"/>
		<path id="Path_7_" class="st1" d="M38,0C38,0,38,0,38,0L38,0C38,0,38,0,38,0z M38,0C38,0,38,0,38,0L38,0C38,0,38,0,38,0z M38,0
			C38,0,38,0,38,0L38,0C38,0,38,0,38,0z M115.7,35.6c-2.3,0-4.4,0.6-6.3,1.6c-1.8-1.1-4-1.6-6.3-1.6c-1.4,0-2.7,0.2-3.9,0.6
			c-2-2.2-5-3.5-8.3-3.5c-2.1,0-4,0.5-5.7,1.5c-1.2-1.8-3.2-2.9-5.6-2.9c-3.2,0-5.9,2.1-6.4,4.9c-3,0.8-5.3,3.4-5.3,6.4v0.3
			c-2,0.7-3.4,2.5-3.4,4.6v0c-4.7,0.1-8.5,3.7-8.5,8.1c0,4.5,4,8.2,8.8,8.2c2.6,0,4.9-1.1,6.6-2.7c1.9,1.2,4.2,1.8,6.7,1.8
			c3.2,0,6.2-1.2,8.4-3.1c1.3,0.5,2.7,0.7,4.2,0.7c0.2,0,0.4,0,0.6,0c2.5-0.1,4.8-0.9,6.7-2.2c0.3-0.3,0.7-0.5,1-0.8
			c1.3,0.5,2.7,0.7,4.2,0.7c2.3,0,4.5-0.6,6.3-1.6c1.8,1.1,4,1.6,6.3,1.6c6.8,0,12.3-5.1,12.3-11.4C128,40.7,122.5,35.6,115.7,35.6z
			 M82.1,41C82.1,41,82.1,41,82.1,41C82.1,41,82.2,41,82.1,41L82.1,41z M62,15.6c-1.6,0-3.2,0.4-4.5,1.2c-1.3-0.8-2.9-1.2-4.5-1.2
			c-1,0-1.9,0.2-2.8,0.4c-1.4-1.6-3.6-2.5-6-2.5c-1.5,0-2.9,0.4-4.1,1.1c-0.8-1.3-2.3-2.1-4-2.1c-2.3,0-4.2,1.5-4.6,3.5
			c-2.2,0.6-3.8,2.4-3.8,4.6v0.2c-1.4,0.5-2.5,1.8-2.5,3.3v0c-3.4,0.1-6.1,2.7-6.1,5.8c0,3.2,2.8,5.9,6.3,5.9c1.9,0,3.5-0.8,4.7-2
			c1.4,0.8,3,1.3,4.8,1.3c2.3,0,4.4-0.8,6-2.2c0.7,0.2,1.4,0.4,2.1,0.5c0.3,0,0.6,0.1,0.9,0.1c1.8,0,3.5-0.5,4.9-1.4
			c0.4-0.3,0.7-0.5,1.1-0.8c0.9,0.3,2,0.5,3,0.5c1.7,0,3.2-0.4,4.5-1.2c1.3,0.8,2.9,1.2,4.5,1.2c4.9,0,8.8-3.6,8.8-8.1
			C70.8,19.3,66.9,15.6,62,15.6z M38,19.5C38,19.5,38,19.5,38,19.5C38,19.5,38,19.5,38,19.5L38,19.5z M43.8,57.2
			c0,3.8-3.3,6.9-7.4,6.9c-2.6,0-4.9-1.3-6.2-3.2c-0.6,0.1-1.2,0.2-1.8,0.2c-2.7,0-5.1-1.4-6.4-3.5c0,0.1,0,0.2,0,0.3
			c0,0.1,0,0.2,0,0.3c-0.1,1.7-1,3.1-2.4,4.1c-1,0.7-2.2,1.1-3.4,1.1c-1,0-1.9-0.2-2.6-0.6c-1.4,1.7-3.5,2.8-6,2.8
			c-4.1,0-7.4-3.1-7.4-6.9c0-3.8,3.3-6.9,7.4-6.9c1.9,0,3.7,0.7,5.1,1.9c0.4-0.3,0.9-0.6,1.4-0.8c-0.6-0.9-0.9-2-0.9-3.1
			c0-3.6,3.2-6.5,7-6.5c3,0,5.6,1.8,6.6,4.2c0.5-0.1,1.1-0.2,1.6-0.2c2.6,0,4.9,1.3,6.2,3.2c0.6-0.1,1.2-0.2,1.8-0.2
			C40.4,50.3,43.8,53.4,43.8,57.2z"/>
	</g>
</g>
<g id="row2">
	<g id="tree:4_1_" class="st0">
		<path id="Path_17_" class="st1" d="M78.7,79.3c5.9,20.8,11.1,42.2,10.9,43.2H73c0.1-0.1,3.4-10.2,4-22.8
			c-4.1-2.3-16.7-9.1-30-14.2c-18-7-31.3-18-31.9-18.5l2.5-2.5c0.1,0.1,13.4,11.1,30.8,17.8C60.4,87,71.7,92.9,77.1,95.8
			c0-5.3-0.6-10.8-2.1-16.2l0.4-0.1L75,79.5v-0.1c0,0,0,0,0,0c-2.4-8.5-7.6-17.6-12.8-25.2l0.3,0.4c-0.1-0.2-0.3-0.5-0.5-0.7
			c0.1,0.1,0.1,0.2,0.2,0.3l-0.4-0.5c-5.8-7.1-28.3-14.7-36.8-17.1l1.1-3.2c1,0.3,17.5,5,29.1,11.3c-4.1-5.2-7.1-8.5-7.2-8.6
			l2.8-2.2c0.7,0.7,12.9,14,21.3,29.5c-1-11.3-0.1-26.3,8.6-37.6l3,2c-4.3,5.7-6.6,12.4-7.5,19.2c9.1-13.3,29.3-23.2,30.4-23.7
			l1.7,3c-0.3,0.2-30.4,14.9-32.7,31.2c0.1,6.3,1,12,1.7,15.9c7.1-12.9,26.6-21.4,27.5-21.8l1.5,3.1C106.1,54.6,82.2,65.1,78.7,79.3
			z"/>
		<path id="Path_16_" class="st1" d="M80.2,14.6c1.3,5.5-1.7,10.8-1.7,10.8s-5.2-3.6-6.6-9.1c-1.3-5.5,1.7-10.8,1.7-10.8
			S78.9,9.1,80.2,14.6z M44.2,13.9c0,0-3.1,5.3-1.7,10.8c1.3,5.5,6.6,9.1,6.6,9.1s3.1-5.3,1.7-10.8C49.5,17.5,44.2,13.9,44.2,13.9z
			 M39.7,29c0,0-0.7,3.5,1.1,6.3c1.8,2.8,5.4,3.9,5.4,3.9s0.7-3.5-1.1-6.3C43.3,30.2,39.7,29,39.7,29z M32.3,25.6
			c0,0-0.7,3.5,1.1,6.3c1.8,2.8,5.4,3.9,5.4,3.9s0.7-3.5-1.1-6.3C35.9,26.8,32.3,25.6,32.3,25.6z M25,23.9c0,0-0.7,3.5,1.1,6.3
			s5.4,3.9,5.4,3.9s0.7-3.5-1.1-6.3C28.6,25.1,25,23.9,25,23.9z M10.1,29.5c0,0,2,3.9,5.9,5.5s8.4,0.4,8.4,0.4s-2-3.9-5.9-5.5
			C14.5,28.3,10.1,29.5,10.1,29.5z M95.9,11c0,0-6.4,1-10.3,5.4s-3.7,10.4-3.7,10.4s6.4-1,10.3-5.4S95.9,11,95.9,11z M124.9,10.6
			c0,0-6.5-0.1-11.2,3.6s-5.6,9.6-5.6,9.6s6.5,0.1,11.2-3.6S124.9,10.6,124.9,10.6z M109.2,5.9c0,0-5.7,2.9-7.8,8.2
			c-2.1,5.3,0.2,10.9,0.2,10.9s5.7-2.9,7.8-8.2C111.5,11.5,109.2,5.9,109.2,5.9z M65,19.6c0,0,0.3,4.5,3.4,7.5s8,3.4,8,3.4
			S76.1,26,73,23S65,19.6,65,19.6z M61.3,28.1c0,0,0.3,4.5,3.4,7.5c3.1,3,8,3.4,8,3.4s-0.3-4.5-3.4-7.5S61.3,28.1,61.3,28.1z
			 M59.5,38.3c0,0,0.3,4.5,3.4,7.5c3.1,3,8,3.4,8,3.4s-0.3-4.5-3.4-7.5C64.3,38.7,59.5,38.3,59.5,38.3z M123,39.5
			c0,0-6.5-0.1-11.2,3.6c-4.6,3.6-5.6,9.6-5.6,9.6s6.5,0.1,11.2-3.6S123,39.5,123,39.5z M27.5,39.5c0,0-6.5-0.1-11.2,3.6
			c-4.6,3.6-5.6,9.6-5.6,9.6s6.5,0.1,11.2-3.6S27.5,39.5,27.5,39.5z M64.9,60.1c0,0-5.4-3.4-11.5-2.7c-6,0.7-10.4,5.2-10.4,5.2
			s5.4,3.4,11.5,2.7S64.9,60.1,64.9,60.1z M70.7,71c0,0-2.9-3.2-7.1-3.8s-8,1.6-8,1.6s2.9,3.2,7.1,3.8S70.7,71,70.7,71z M71.4,89.1
			c0,0,0.3-4.2-2.2-7.3c-2.5-3.1-7-4-7-4s-0.3,4.2,2.2,7.3C67,88.2,71.4,89.1,71.4,89.1z M60.4,84c0,0,0.3-4.2-2.2-7.3s-7-4-7-4
			s-0.3,4.2,2.2,7.3S60.4,84,60.4,84z M49.4,80.6c0,0,0.3-4.2-2.2-7.3s-7-4-7-4s-0.3,4.2,2.2,7.3S49.4,80.6,49.4,80.6z M38.8,76.3
			c0,0,1.2-4-0.5-7.6s-5.9-5.3-5.9-5.3s-1.2,4,0.5,7.6C34.7,74.5,38.8,76.3,38.8,76.3z M29.6,71.2c0,0,1.2-4-0.5-7.6
			c-1.8-3.5-5.9-5.3-5.9-5.3s-1.2,4,0.5,7.6S29.6,71.2,29.6,71.2z M15.9,65.5c0,0-1.1-5.5-5.4-8.7c-4.4-3.2-10.3-3-10.3-3
			s1.1,5.5,5.4,8.7C10,65.7,15.9,65.5,15.9,65.5z M19.8,71.2c0,0-5.3-2.6-10.7-1.5s-9,5.6-9,5.6s5.3,2.6,10.7,1.5
			C16.2,75.7,19.8,71.2,19.8,71.2z M29,78c0,0-5.3-2.6-10.7-1.5c-5.5,1.1-9,5.6-9,5.6s5.3,2.6,10.7,1.5C25.4,82.5,29,78,29,78z
			 M40,83.1c0,0-5.3-2.6-10.7-1.5s-9,5.6-9,5.6s5.3,2.6,10.7,1.5C36.4,87.6,40,83.1,40,83.1z M51,88.2c0,0-5.3-2.6-10.7-1.5
			c-5.5,1.1-9,5.6-9,5.6s5.3,2.6,10.7,1.5S51,88.2,51,88.2z M63.9,93.3c0,0-5.3-2.6-10.7-1.5s-9,5.6-9,5.6s5.3,2.6,10.7,1.5
			C60.3,97.8,63.9,93.3,63.9,93.3z M37,42.1c0,0-4.5,0-7.7,2.5s-3.9,6.6-3.9,6.6s4.5,0,7.7-2.5C36.3,46.2,37,42.1,37,42.1z
			 M47.1,46.7c0,0-4.4-0.9-8,0.9c-3.7,1.8-5.3,5.7-5.3,5.7s4.4,0.9,8-0.9C45.5,50.6,47.1,46.7,47.1,46.7z M54.4,50.1
			c0,0-4.4-0.9-8,0.9c-3.7,1.8-5.3,5.7-5.3,5.7s4.4,0.9,8-0.9C52.8,54,54.4,50.1,54.4,50.1z M125,59.9c0,0-3-3.9-7.7-5
			c-4.7-1.1-9.4,1.1-9.4,1.1s3,3.9,7.7,5C120.4,62.1,125,59.9,125,59.9z M117.1,68.1c0,0-2.2-4.4-6.6-6.3c-4.4-1.9-9.4-0.5-9.4-0.5
			s2.2,4.4,6.6,6.3C112.1,69.5,117.1,68.1,117.1,68.1z M108.3,72.4c0,0-2.7-4.1-7.3-5.5c-4.6-1.4-9.4,0.5-9.4,0.5s2.7,4.1,7.3,5.5
			C103.5,74.3,108.3,72.4,108.3,72.4z M99.5,77.9c0,0-3.4-3.7-8.2-4.3S82,75.4,82,75.4s3.4,3.7,8.2,4.3C95,80.4,99.5,77.9,99.5,77.9
			z M128,27.6c0,0-4.2-3.6-9.6-3.7c-5.4-0.1-9.8,3.2-9.8,3.2s4.2,3.6,9.6,3.7C123.5,31,128,27.6,128,27.6z M115.1,38.6
			c0,0-1-3.9-4.3-6c-3.3-2.1-7.6-1.7-7.6-1.7s1,3.9,4.3,6C110.8,39,115.1,38.6,115.1,38.6z M108.3,43.5c0,0-1.7-4.2-5.7-6.2
			c-4-2-8.8-1-8.8-1s1.7,4.2,5.7,6.2C103.6,44.5,108.3,43.5,108.3,43.5z M101.8,49c0,0-2.2-4-6.3-5.7c-4.2-1.6-8.8-0.2-8.8-0.2
			s2.2,4,6.3,5.7S101.8,49,101.8,49z M95.1,54.1c0,0-3-3.5-7.5-4.3c-4.5-0.8-8.7,1.5-8.7,1.5s3,3.5,7.5,4.3
			C90.9,56.4,95.1,54.1,95.1,54.1z"/>
	</g>
	<g id="tree:3_1_" class="st0">
		<path id="Part2" class="st1" d="M50.9,87.8v32.9H36.8V87.8c2.3,0.3,4.7,0.5,7.1,0.5C46.2,88.4,48.6,88.2,50.9,87.8z M95.3,90.6
			c-1.9,0-3.8-0.2-5.6-0.4v28.2h11.2V90.2C99.1,90.4,97.2,90.6,95.3,90.6z"/>
		<path id="Part1" class="st1" d="M55.5,60.4c0,8.8,3.4,16.9,9,23.3c-4.2,2.1-8.7,3.5-13.5,4.2c-2.3,0.4-4.7,0.5-7.1,0.5
			c-2.4,0-4.8-0.2-7.1-0.5C15.9,84.7,0,68,0,47.8C0,25.4,19.6,7.3,43.8,7.3C59.4,7.3,73,14.7,80.8,26C66,31.4,55.5,44.7,55.5,60.4z
			 M95.3,30.1c-4.2,0-8.2,0.7-11.9,2.1c-12.2,4.4-20.8,15.4-20.8,28.2c0,7.2,2.8,13.9,7.4,19.1c4.9,5.5,11.8,9.4,19.7,10.7
			c1.8,0.3,3.7,0.4,5.6,0.4c1.9,0,3.8-0.2,5.6-0.4c15.4-2.5,27.1-14.9,27.1-29.8C128,43.6,113.4,30.1,95.3,30.1z"/>
	</g>
	<g id="tree:2" class="st0">
		<path id="Path_9_" class="st1" d="M95.7,36.6c-1.7-0.8-2.9-1.8-3.2-3c-25.7,12-34,46.9-34,46.9v-6h0c0.4-8.6,1.9-25.3,5.1-31.4
			c1.4-2.6,7.1-5,11-5.8c-2.7-0.6-4.5-1.6-4.5-2.9c-1.2,0.5-2.4,0.9-3.3,1.2c1-1.6,3.9-4.3,4.5-4.7v0c-1.6,0.1-3.3,0.1-5,0.1
			c-0.4,0-0.8,0-1.3,0c-3.7,4.8-8.6,13.2-9.1,21.1c-1.4-5-3.6-10-7.1-14c-0.9,0.9-2.3,1.7-4,2.4c3.2,3.3,5.2,7.8,6.5,12.3
			c-1.9-0.8-3.9-1.6-5.6-2.3c-0.5,1-1.9,1.9-3.7,2.5c2.1,1.1,7.9,4.1,10.6,5.3c-0.2,7.7,0.1,19.5,0.1,22.9
			c0-1.6-17.6-24.4-28.2-31.8c-1.1,0.9-3,1.6-5.4,2.1l0,0.1c2.8,0.9,8.9,6.2,11.9,9.5c-1.3-0.6-3.8-1.9-5.9-2.9
			c0.2,0.4,0.3,0.7,0.3,1.1c0,1-0.7,2-2,2.8c11.9,3.7,19.4,16,19.5,16.1C50,88.3,44,108,44,108h19.2c-1.2-7.7-1.4-30.3,19.1-43.9
			c-1.4-0.9-2.2-2-2.2-3.1c0-0.8,0.4-1.6,1.1-2.2c-4.5,2.1-8.6,5.6-12,9.2c2.3-6.2,9.9-18.3,21.3-20.5c-0.2-0.4-0.3-0.7-0.3-1.1
			c0-1.2,0.9-2.3,2.3-3.2c-2.6,0.6-8.2,1.8-9.9,2.6C86.4,41.6,92.4,38.2,95.7,36.6z"/>
		<path id="Path_6_" class="st1" d="M25.3,59.4c0,1-0.7,2-2,2.8c-2.2,1.4-6.2,2.4-10.6,2.4c-7,0-12.6-2.3-12.6-5.1
			c0-2.8,5.7-5.1,12.6-5.1c6,0,11.1,1.7,12.4,4C25.2,58.6,25.3,59,25.3,59.4z M14.2,43.8c-6.1,0-11.1,1.8-11.1,4.1
			c0,2.3,5,4.1,11.1,4.1c1.7,0,3.4-0.1,4.8-0.4c2.4-0.4,4.3-1.2,5.4-2.1c0.6-0.5,0.9-1,0.9-1.6C25.3,45.6,20.3,43.8,14.2,43.8z
			 M37.7,45.5c-4.6,0-8.3,1.8-8.3,4.1c0,2.3,3.7,4.1,8.3,4.1c1.6,0,3-0.2,4.3-0.6c1.8-0.5,3.2-1.4,3.7-2.5c0.2-0.3,0.3-0.7,0.3-1
			C46,47.3,42.3,45.5,37.7,45.5z M32.3,28.7c-9.8,0-17.7,3.1-17.7,6.9c0,3.8,7.9,6.9,17.7,6.9c4.9,0,9.2-0.8,12.5-2
			c1.7-0.7,3.1-1.5,4-2.4c0.8-0.8,1.2-1.6,1.2-2.6C50,31.8,42.1,28.7,32.3,28.7z M66.3,20c-12.4,0-22.4,2.5-22.4,5.6
			c0,3,9.3,5.4,21.1,5.6c0.4,0,0.8,0,1.3,0c1.7,0,3.4,0,5-0.1c10-0.6,17.4-2.8,17.4-5.4C88.6,22.5,78.6,20,66.3,20z M78.5,31.1
			c-4.7,0-8.5,1.5-8.5,3.3c0,1.3,1.8,2.4,4.5,2.9c1.2,0.3,2.5,0.4,4,0.4c4.7,0,8.4-1.5,8.4-3.3C86.9,32.6,83.1,31.1,78.5,31.1z
			 M128,29.1c-0.5-3.8-8.9-6-18.7-4.9c-9.8,1.1-17.4,5.1-16.9,8.9c0,0.1,0,0.3,0.1,0.4c0.3,1.2,1.5,2.2,3.2,3h0
			c3.4,1.6,9.1,2.2,15.4,1.5C120.9,37,128.5,33,128,29.1z M102.9,40.8c-4.3,0-8.1,0.9-10.5,2.4c-1.4,0.9-2.3,2-2.3,3.2
			c0,0.4,0.1,0.8,0.3,1.1c1.2,2.5,6.3,4.4,12.5,4.4c7,0,12.7-2.5,12.7-5.6S109.9,40.8,102.9,40.8z M95.5,54.9
			c-6.5,0-12.1,1.6-14.4,3.9c-0.7,0.7-1.1,1.4-1.1,2.2c0,1.1,0.8,2.2,2.2,3.1c2.7,1.8,7.6,3,13.3,3c8.5,0,15.5-2.7,15.5-6.1
			C111,57.6,104.1,54.9,95.5,54.9z"/>
	</g>
	<g id="tree:1_1_" class="st0">
		<path id="Path_11_" class="st1" d="M72.1,104.8V128H55.9v-23.2c2.6,0.2,5.4,0.3,8.1,0.3C66.8,105.1,69.5,105,72.1,104.8z"/>
		<path id="Path_10_" class="st1" d="M106,72.8c0,23.2-14.6,30.5-33.9,31.9c-2.6,0.2-5.4,0.3-8.1,0.3c-2.8,0-5.5-0.1-8.1-0.3
			C36.5,103.3,21.7,96,22,72.8C22.4,40.4,64,0,64,0S106,40.4,106,72.8z"/>
	</g>
</g>
<g id="row1">
	<g id="tree:4" class="st0">
		<path id="Path_5_" class="st1" d="M128,66.3c-5.9-0.5-8.8,5.2-8.8,5.2l-5.3-4.6l-6.8,2.3l-1.6-5.5l-9.1,5.5l-1-6.6l-6.3,3.1l-3-6
			l-7.7,1.7l-0.8-5.7l-3.1,0.4c2-1.2,3.3-3.2,3.3-5.5c0-3.6-3.2-6.6-7.1-6.6c-3.9,0-7,2.8-7.1,6.4c-1.1-2.4-3.6-4.2-6.6-4.2
			c-4,0-7.2,3-7.2,6.6c0,1.2,0.4,2.4,1,3.4l-1.1,5.2l-7.6-2.2l-3.4,5.8l-6.2-1.9l-3.3,4.9l-6.9-4.4l-2,5.4l-6.4-5.9l-5.9,4.4
			c0,0-2.3-4.4-8.2-4.2c11.8-15.9,29-19.7,42.1-19.9l-8.7-2.6l-2.3-5.6l-6.4,3l-0.3-10l-5.8,2l1-8.3l-9,1.8c0,0-1.2-7.8-5.1-12
			c32.1-2.2,53.2,23,57.3,30.8c4.2-7.8,24.9-33.2,57-31c-3.9,4.2-4.7,12.1-4.7,12.1l-7.3-1.8l-0.8,8.3l-5.8-2l-0.3,10l-6.4-3
			l-2.3,7.3l-8.7,1.1C97.1,44,116.3,48.1,128,66.3z"/>
		<path id="Path_4_" class="st1" d="M62.6,52.9c0,2.8-2.5,5.1-5.5,5.1c-0.4,0-0.8,0-1.2-0.1c-1.5-0.3-2.8-1.2-3.6-2.4
			c-0.5-0.8-0.8-1.7-0.8-2.6c0-2.8,2.5-5.1,5.5-5.1c2.5,0,4.6,1.5,5.3,3.7c0,0.1,0.1,0.2,0.1,0.3C62.5,52.1,62.6,52.5,62.6,52.9z
			 M70.8,45.6c-2.9,0-5.3,2.1-5.3,4.8c0,0,0,0.1,0,0.1c0,0.7,0.1,1.3,0.4,1.9c0.7,1.5,2.1,2.7,3.9,3c0.4,0.1,0.7,0.1,1.1,0.1
			c1.1,0,2.1-0.3,2.9-0.8c1.5-0.9,2.5-2.4,2.5-4.2C76.1,47.8,73.7,45.6,70.8,45.6z M72.5,57.4c-0.9,0-1.8,0.2-2.5,0.6
			c-1.4,0.8-2.3,2.1-2.3,3.7c0,0.1,0,0.1,0,0.1c0,0.6,0.1,1.2,0.4,1.7c0.1,0.2,0.2,0.4,0.4,0.6c0.7,1,1.8,1.8,3.1,2.1
			c0.3,0.1,0.6,0.1,1,0.1c1,0,1.9-0.3,2.6-0.7c1.3-0.8,2.2-2.2,2.2-3.8C77.4,59.4,75.2,57.4,72.5,57.4z M69.3,57
			c-2.3-0.5-4.3-2-5.1-4c-0.1,3.6-3.3,6.5-7.2,6.5c-0.5,0-1,0-1.5-0.2c-0.5,4.4-1.2,8.7-1.8,12.8c2.7,0,8.3,0.3,8.3,0.6
			s-5.7,0.6-8.5,0.6c-1.5,9.4-3.3,17.8-4.9,24.6c0.2,0,0.5,0,0.8,0c3.1,0,9.2,0.3,9.2,0.6c0,0.3-6,0.6-9.2,0.6c-0.3,0-0.7,0-1,0
			c-2.6,10.8-4.6,17.5-4.6,17.5s15.9-0.1,23,0c-1.8-2.5-3-5.7-3.6-9.4c-3,0-8.9-0.3-8.9-0.6c0-0.3,5.8-0.6,8.7-0.6
			c-0.7-5-0.6-10.8,0-16.6c-2-0.1-8.7-0.3-8.7-0.6c0-0.3,6.7-0.5,8.8-0.5c0.9-8.4,2.7-16.9,4.3-23.5c-0.2-0.3-0.3-0.5-0.5-0.8
			c-0.3-0.7-0.5-1.4-0.5-2.1c0-0.1,0-0.1,0-0.2C66.4,59.7,67.6,58,69.3,57z"/>
	</g>
	<g id="tree:3" class="st0">
		<path id="Path_15_" class="st1" d="M63.3,105.9C57.8,116,68.2,128,68.2,128H41.5l6.7-34.8L36.5,80.9c1.3-1.3,2.5-2.7,3.4-4.4
			l14.4,15.2l1.2-4.6l-2.4-14.7L46.4,66c1.5,0.2,3,0.3,4.6,0.3c1.1,0,2.3-0.1,3.4-0.1l4.1,3.9l0.7,4.5l8.9-6.7c0.1,2,0.5,4,1.1,5.8
			l-9.1,6.8l1.1,6.9l-2.7,10.1v5l8-4.8l4.6-18.1l0.8-0.5c1.1,1.7,2.4,3.3,4,4.7L71.6,101L63.3,105.9z"/>
		<path id="Path_14_" class="st1" d="M122,66.3c0,13.8-12.1,25-27,25c-7.5,0-14.3-2.8-19.2-7.4c-1.5-1.4-2.9-3-4-4.7
			c-1.1-1.7-2-3.5-2.7-5.5c-0.6-1.9-1-3.8-1.1-5.8c0-0.5-0.1-1-0.1-1.5c0-1.4,0.1-2.8,0.4-4.2c-4.2,2.2-9,3.6-14.1,4.1
			c-1.1,0.1-2.2,0.1-3.4,0.1c-1.6,0-3.1-0.1-4.6-0.3h0c-1.5-0.2-3-0.4-4.4-0.8c0.1,0.9,0.2,1.7,0.2,2.6c0,3.1-0.8,6.1-2.2,8.7
			c-0.9,1.6-2,3.1-3.4,4.4c-3.2,3.1-7.6,5-12.5,5c-10,0-18.1-8.1-18.1-18c0-8.7,6.1-15.9,14.3-17.6c-3.2-5-5.1-10.8-5.1-17.1
			C15.2,14.8,31.2,0,51,0c14.1,0,26.3,7.5,32.1,18.4c12.7,0.5,22.8,10.2,22.8,22c0,1-0.1,1.9-0.2,2.9C115.3,47.1,122,56,122,66.3z"
			/>
	</g>
	<g id="tree:2_1_" class="st0">
		<path id="Path_3_" class="st1" d="M85.6,73.1c-1.3,2.2-6.1,10.8-9.7,19c-3.3,7.4-3.3,30.9-3.3,30.9h-25c-1.7,0-0.6-21.6,0.1-29.6
			c0.5-5.9-1.7-10.2-3.6-12.7c-0.2-0.3-0.4-0.6-0.4-0.9c1,0.2,2,0.3,3,0.3c1.7,0,3.3-0.4,4.8-1.1c2.3,1.3,5.1,2.6,7.4,2.6
			c3,0,5.5-3.8,7.4-5.3c1.3,0.8,2.8,1.4,4.5,1.7c0.6,0.7,1.1,1.5,1.7,2.1c2.4,2.4,6.2-0.9,8.4-3.5h0C82.6,75.9,84.3,74.6,85.6,73.1z
			"/>
		<path id="Path" class="st1" d="M128,57.4c0,11.4-10,20.6-22.3,20.6c-7.1,0-13.4-4.8-17.5-9.6c-0.5,1.7-1.4,3.3-2.6,4.7
			c-1.3,1.5-3,2.8-4.9,3.7h0c-2.2,1.1-4.7,1.7-7.2,1.7c-1,0-2-0.1-2.9-0.3c-1.7-0.3-3.2-0.9-4.5-1.7c-2.7-1.6-4.6-4.1-5.7-7.1
			c-1.4,3.9-4.8,7.9-9,9.8c-1.5,0.7-3.1,1.1-4.8,1.1c-1,0-2-0.1-3-0.3c-5.4-1-9.7-4.9-11.1-9.8c-3.3,4.2-8.6,6.9-14.6,6.9
			C8,77,0,69.6,0,60.5c0-9.1,8-16.6,17.9-16.6c1.2,0,2.3,0.1,3.5,0.3c-1.1-1.8-1.7-3.9-1.7-6.2c0-6.9,5.7-12.5,13-13
			c-0.7-1.6-1-3.4-1-5.3c0-8.2,7.2-14.8,16-14.8c4.1,0,7.9,1.4,10.7,3.8c3-1.6,6.5-2.6,10.3-2.6c11.2,0,20.4,8.5,20.4,18.9
			c7.4,0,13.4,5.2,14,11.9c0.9-0.1,1.8-0.2,2.7-0.2C118,36.8,128,46,128,57.4z"/>
	</g>
	<g id="tree:1">
		<polyline id="Path_2_" class="st2" points="57.2,96.4 57.3,128 70.8,128 70.8,96.4 		"/>
		<polygon id="Path_1_" class="st2" points="20.7,98.2 43.6,66.8 28.8,66.8 52.7,33.8 39.5,33.8 63.7,0 87.9,33.8 74.7,33.8 
			98.6,66.8 84.4,66.8 107.3,98.2 		"/>
	</g>
</g>
</svg>
